<!DOCTYPE svg PUBLIC "-//W3C//DTD SVG 1.1//EN" "http://www.w3.org/Graphics/SVG/1.1/DTD/svg11.dtd">
<!-- Uploaded to: SVG Repo, www.svgrepo.com, Transformed by: SVG Repo Mixer Tools -->
<svg height="153px" width="153px" version="1.1" id="Layer_1" xmlns="http://www.w3.org/2000/svg" xmlns:xlink="http://www.w3.org/1999/xlink" viewBox="-40.96 -40.96 593.92 593.92" xml:space="preserve" fill="#000000">
<g id="SVGRepo_bgCarrier" stroke-width="0">
<path transform="translate(-40.96, -40.96), scale(37.12)" fill="#006eff" d="M9.166.33a2.25 2.25 0 00-2.332 0l-5.25 3.182A2.25 2.25 0 00.5 5.436v5.128a2.25 2.25 0 001.084 1.924l5.25 3.182a2.25 2.25 0 002.332 0l5.25-3.182a2.25 2.25 0 001.084-1.924V5.436a2.25 2.25 0 00-1.084-1.924L9.166.33z" strokewidth="0"/>
</g>
<g id="SVGRepo_tracerCarrier" stroke-linecap="round" stroke-linejoin="round"/>
<g id="SVGRepo_iconCarrier"> <g> <path style="fill:#ffffff;" d="M0,266.768l169.376-87.232v25.184l-142.72,71.536v0.72l142.72,71.568v25.184L0,286.464V266.768z"/> <path style="fill:#ffffff;" d="M193.008,388.32l101.856-264.64h24.816L217.472,388.32H193.008z"/> <path style="fill:#ffffff;" d="M512,286.832l-169.376,86.896v-25.184l143.84-71.568v-0.72l-143.84-71.536v-25.184L512,266.4 V286.832z"/> </g> </g>
</svg>