<svg width="6" height="6" viewBox="0 0 6 6" fill="none" xmlns="http://www.w3.org/2000/svg">
<path d="M5.41652 0.841767L2.37579 0.0270098C1.95596 -0.0854802 1.52442 0.163667 1.41193 0.5835L0.444401 4.19432C0.331906 4.6142 0.581056 5.04572 1.00089 5.1582L4.04162 5.973C4.46144 6.08547 4.89297 5.83633 5.00549 5.4165L5.97299 1.80563C6.08547 1.3858 5.83634 0.954262 5.41652 0.841767ZM1.79201 0.685345C1.84826 0.475427 2.06403 0.350852 2.27395 0.407102L5.31467 1.22186C5.52457 1.2781 5.64914 1.49387 5.59289 1.70379L4.62537 5.31465C4.56917 5.52458 4.35337 5.64915 4.14347 5.59288L1.10274 4.77812C0.892818 4.72187 0.768246 4.50612 0.824491 4.29623L1.79201 0.685345ZM2.45037 1.26913C2.3454 1.24101 2.23752 1.3033 2.2094 1.40825C2.18128 1.51321 2.24356 1.6211 2.34852 1.64922L4.62907 2.26029C4.73402 2.28841 4.84192 2.22613 4.87002 2.12117C4.89817 2.01621 4.83587 1.90832 4.73092 1.8802L2.45037 1.26913ZM1.95479 2.35848C1.98291 2.25352 2.0908 2.19123 2.19575 2.21936L4.47629 2.83042C4.58124 2.85855 4.64352 2.96642 4.61542 3.0714C4.58729 3.17635 4.47942 3.23865 4.37444 3.21052L2.09391 2.59945C1.98895 2.57132 1.92666 2.46344 1.95479 2.35848ZM1.94114 3.16957C1.83618 3.14145 1.7283 3.20375 1.70018 3.3087C1.67205 3.41365 1.73434 3.52152 1.8393 3.54967L3.16962 3.90615C3.27457 3.93425 3.38244 3.87197 3.41057 3.76697C3.43869 3.66202 3.37642 3.55417 3.27147 3.52602L1.94114 3.16957Z" fill="white"/>
</svg>
